HIERARCHY
ROOT Hips
{
	OFFSET 0.000000 97.167313 0.000000
	CHANNELS 6 Xposition Yposition Zposition Xrotation Yrotation Zrotation
	JOINT Spine
	{
		OFFSET 0.000000 13.784798 0.064400
		CHANNELS 3 Xrotation Yrotation Zrotation
		JOINT Spine1
		{
			OFFSET 0.000000 12.037903 0.404700
			CHANNELS 3 Xrotation Yrotation Zrotation
			JOINT Spine2
			{
				OFFSET 0.000000 17.795601 0.420200
				CHANNELS 3 Xrotation Yrotation Zrotation
				JOINT Neck
				{
					OFFSET 0.000000 39.131302 11.954600
					CHANNELS 3 Xrotation Yrotation Zrotation
					JOINT Head
					{
						OFFSET 0.000000 14.456192 15.627699
						CHANNELS 3 Xrotation Yrotation Zrotation
						JOINT HeadTop_End
						{
							OFFSET 0.000000 15.703506 7.603401
							CHANNELS 3 Xrotation Yrotation Zrotation
							End Site
							{
								OFFSET 0.000000 17.447403 0.000000
							}
						}
					}
				}
				JOINT LeftShoulder
				{
					OFFSET 17.399500 24.608795 1.168800
					CHANNELS 3 Xrotation Yrotation Zrotation
					JOINT LeftArm
					{
						OFFSET 18.980635 5.765305 1.818600
						CHANNELS 3 Xrotation Yrotation Zrotation
						JOINT LeftForeArm
						{
							OFFSET 49.290169 0.000000 0.000000
							CHANNELS 3 Xrotation Yrotation Zrotation
							JOINT LeftHand
							{
								OFFSET 31.562012 0.000000 0.000000
								CHANNELS 3 Xrotation Yrotation Zrotation
								JOINT LeftHandThumb1
								{
									OFFSET 6.133995 -4.388519 7.076070
									CHANNELS 3 Xrotation Yrotation Zrotation
									JOINT LeftHandThumb2
									{
										OFFSET 6.037666 -3.485840 3.485847
										CHANNELS 3 Xrotation Yrotation Zrotation
										JOINT LeftHandThumb3
										{
											OFFSET 6.496506 -3.750763 3.750761
											CHANNELS 3 Xrotation Yrotation Zrotation
											JOINT LeftHandThumb4
											{
												OFFSET 5.616882 -3.242905 3.242910
												CHANNELS 3 Xrotation Yrotation Zrotation
												End Site
												{
													OFFSET -1.254608 7.132141 0.375429
												}
											}
										}
									}
								}
								JOINT LeftHandPinky1
								{
									OFFSET 18.920792 -0.453171 -11.426712
									CHANNELS 3 Xrotation Yrotation Zrotation
									JOINT LeftHandPinky2
									{
										OFFSET 4.919586 0.000000 0.000000
										CHANNELS 3 Xrotation Yrotation Zrotation
										JOINT LeftHandPinky3
										{
											OFFSET 5.233047 0.000000 0.000000
											CHANNELS 3 Xrotation Yrotation Zrotation
											JOINT LeftHandPinky4
											{
												OFFSET 5.571716 0.000000 0.000000
												CHANNELS 3 Xrotation Yrotation Zrotation
												End Site
												{
													OFFSET -3.459808 4.342407 -0.466164
												}
											}
										}
									}
								}
								JOINT LeftHandRing1
								{
									OFFSET 22.726120 -0.094986 -6.500475
									CHANNELS 3 Xrotation Yrotation Zrotation
									JOINT LeftHandRing2
									{
										OFFSET 6.408615 0.000000 0.000000
										CHANNELS 3 Xrotation Yrotation Zrotation
										JOINT LeftHandRing3
										{
											OFFSET 6.150223 0.000000 0.000000
											CHANNELS 3 Xrotation Yrotation Zrotation
											JOINT LeftHandRing4
											{
												OFFSET 6.145386 0.000000 0.000000
												CHANNELS 3 Xrotation Yrotation Zrotation
												End Site
												{
													OFFSET -3.671402 4.923981 -0.202372
												}
											}
										}
									}
								}
								JOINT LeftHandMiddle1
								{
									OFFSET 23.373947 0.000000 0.000001
									CHANNELS 3 Xrotation Yrotation Zrotation
									JOINT LeftHandMiddle2
									{
										OFFSET 6.996567 0.000000 0.000000
										CHANNELS 3 Xrotation Yrotation Zrotation
										JOINT LeftHandMiddle3
										{
											OFFSET 7.015945 0.000000 0.000000
											CHANNELS 3 Xrotation Yrotation Zrotation
											JOINT LeftHandMiddle4
											{
												OFFSET 7.721573 0.000000 0.000000
												CHANNELS 3 Xrotation Yrotation Zrotation
												End Site
												{
													OFFSET -4.651108 6.158463 0.251582
												}
											}
										}
									}
								}
								JOINT LeftHandIndex1
								{
									OFFSET 21.310577 -0.490082 6.209344
									CHANNELS 3 Xrotation Yrotation Zrotation
									JOINT LeftHandIndex2
									{
										OFFSET 7.536453 0.000000 0.000000
										CHANNELS 3 Xrotation Yrotation Zrotation
										JOINT LeftHandIndex3
										{
											OFFSET 7.512344 0.000000 0.000000
											CHANNELS 3 Xrotation Yrotation Zrotation
											JOINT LeftHandIndex4
											{
												OFFSET 10.212402 0.000000 0.000001
												CHANNELS 3 Xrotation Yrotation Zrotation
												End Site
												{
													OFFSET -5.180801 8.690506 1.388433
												}
											}
										}
									}
								}
							}
						}
					}
				}
				JOINT RightShoulder
				{
					OFFSET -17.399500 24.608795 1.168800
					CHANNELS 3 Xrotation Yrotation Zrotation
					JOINT RightArm
					{
						OFFSET -18.980635 5.765305 1.818600
						CHANNELS 3 Xrotation Yrotation Zrotation
						JOINT RightForeArm
						{
							OFFSET -49.290169 0.000000 0.000000
							CHANNELS 3 Xrotation Yrotation Zrotation
							JOINT RightHand
							{
								OFFSET -31.562012 0.000000 0.000000
								CHANNELS 3 Xrotation Yrotation Zrotation
								JOINT RightHandThumb1
								{
									OFFSET -6.133995 -4.388519 7.076070
									CHANNELS 3 Xrotation Yrotation Zrotation
									JOINT RightHandThumb2
									{
										OFFSET -6.037666 -3.485840 3.485847
										CHANNELS 3 Xrotation Yrotation Zrotation
										JOINT RightHandThumb3
										{
											OFFSET -6.496506 -3.750763 3.750761
											CHANNELS 3 Xrotation Yrotation Zrotation
											JOINT RightHandThumb4
											{
												OFFSET -5.616882 -3.242905 3.242910
												CHANNELS 3 Xrotation Yrotation Zrotation
												End Site
												{
													OFFSET 1.254608 7.132141 0.375429
												}
											}
										}
									}
								}
								JOINT RightHandIndex1
								{
									OFFSET -21.310577 -0.490082 6.209344
									CHANNELS 3 Xrotation Yrotation Zrotation
									JOINT RightHandIndex2
									{
										OFFSET -7.536453 0.000000 0.000000
										CHANNELS 3 Xrotation Yrotation Zrotation
										JOINT RightHandIndex3
										{
											OFFSET -7.512344 0.000000 0.000000
											CHANNELS 3 Xrotation Yrotation Zrotation
											JOINT RightHandIndex4
											{
												OFFSET -10.212402 0.000000 0.000001
												CHANNELS 3 Xrotation Yrotation Zrotation
												End Site
												{
													OFFSET 5.180801 8.690506 1.388433
												}
											}
										}
									}
								}
								JOINT RightHandMiddle1
								{
									OFFSET -23.373947 0.000000 0.000001
									CHANNELS 3 Xrotation Yrotation Zrotation
									JOINT RightHandMiddle2
									{
										OFFSET -6.996567 0.000000 0.000000
										CHANNELS 3 Xrotation Yrotation Zrotation
										JOINT RightHandMiddle3
										{
											OFFSET -7.015945 0.000000 0.000000
											CHANNELS 3 Xrotation Yrotation Zrotation
											JOINT RightHandMiddle4
											{
												OFFSET -7.721573 0.000000 0.000000
												CHANNELS 3 Xrotation Yrotation Zrotation
												End Site
												{
													OFFSET 4.651108 6.158463 0.251582
												}
											}
										}
									}
								}
								JOINT RightHandRing1
								{
									OFFSET -22.726120 -0.094986 -6.500475
									CHANNELS 3 Xrotation Yrotation Zrotation
									JOINT RightHandRing2
									{
										OFFSET -6.408615 0.000000 0.000000
										CHANNELS 3 Xrotation Yrotation Zrotation
										JOINT RightHandRing3
										{
											OFFSET -6.150223 0.000000 0.000000
											CHANNELS 3 Xrotation Yrotation Zrotation
											JOINT RightHandRing4
											{
												OFFSET -6.145386 0.000000 0.000000
												CHANNELS 3 Xrotation Yrotation Zrotation
												End Site
												{
													OFFSET 3.671402 4.923981 -0.202372
												}
											}
										}
									}
								}
								JOINT RightHandPinky1
								{
									OFFSET -18.920792 -0.453171 -11.426712
									CHANNELS 3 Xrotation Yrotation Zrotation
									JOINT RightHandPinky2
									{
										OFFSET -4.919586 0.000000 0.000000
										CHANNELS 3 Xrotation Yrotation Zrotation
										JOINT RightHandPinky3
										{
											OFFSET -5.233047 0.000000 0.000000
											CHANNELS 3 Xrotation Yrotation Zrotation
											JOINT RightHandPinky4
											{
												OFFSET -5.571716 0.000000 0.000000
												CHANNELS 3 Xrotation Yrotation Zrotation
												End Site
												{
													OFFSET 3.459808 4.342407 -0.466164
												}
											}
										}
									}
								}
							}
						}
					}
				}
			}
		}
	}
	JOINT LeftUpLeg
	{
		OFFSET 19.899099 -7.885101 -3.429500
		CHANNELS 3 Xrotation Yrotation Zrotation
		JOINT LeftLeg
		{
			OFFSET 1.745560 -36.997807 10.304700
			CHANNELS 3 Xrotation Yrotation Zrotation
			JOINT LeftFoot
			{
				OFFSET -1.745558 -29.803308 -13.615400
				CHANNELS 3 Xrotation Yrotation Zrotation
				JOINT LeftToeBase
				{
					OFFSET 1.181900 -18.539904 15.226099
					CHANNELS 3 Xrotation Yrotation Zrotation
					JOINT LeftToe_End
					{
						OFFSET -0.863701 1.402801 16.534700
						CHANNELS 3 Xrotation Yrotation Zrotation
						End Site
						{
							OFFSET 0.000000 16.616566 0.000000
						}
					}
				}
			}
		}
	}
	JOINT RightUpLeg
	{
		OFFSET -19.899099 -7.885101 -3.429500
		CHANNELS 3 Xrotation Yrotation Zrotation
		JOINT RightLeg
		{
			OFFSET -1.745560 -36.997807 10.304700
			CHANNELS 3 Xrotation Yrotation Zrotation
			JOINT RightFoot
			{
				OFFSET 1.745558 -29.803308 -13.615400
				CHANNELS 3 Xrotation Yrotation Zrotation
				JOINT RightToeBase
				{
					OFFSET -1.181900 -18.539904 15.226099
					CHANNELS 3 Xrotation Yrotation Zrotation
					JOINT RightToe_End
					{
						OFFSET 0.863701 1.402801 16.534700
						CHANNELS 3 Xrotation Yrotation Zrotation
						End Site
						{
							OFFSET 0.000000 16.616566 0.000000
						}
					}
				}
			}
		}
	}
}
MOTION
Frames: 5
Frame Time: 0.033333
1.670822 89.489273 49.263367 -0.588794 -0.289909 -1.408174 1.330009 0.183658 -2.262374 2.907398 0.262172 -2.106720 2.918996 0.160288 -2.050627 -10.116921 -0.517677 1.311309 -18.208577 -0.862781 1.403195 -0.000000 -0.000000 0.000000 1.763486 -12.661393 -7.226063 0.786204 6.876271 -37.504442 0.000015 -34.212916 0.000005 1.656227 -4.246183 10.501492 19.437771 -7.123480 0.826874 6.576784 27.838970 -11.968438 70.747045 59.739970 -34.474147 -0.000001 0.000001 -0.000002 -4.199503 10.065549 -99.596890 5.208804 5.815818 -83.687180 3.708169 5.445816 -68.482072 -0.000000 0.000001 -0.000000 -0.472387 8.446420 -92.054790 4.480766 5.688871 -76.432959 2.099209 4.493046 -50.067640 -0.000001 -0.000001 0.000003 2.073349 8.065414 -87.860869 4.531220 5.700761 -76.941364 1.748827 4.175689 -45.434070 0.000001 -0.000000 0.000009 5.479098 3.268805 -88.868541 4.508105 5.695377 -76.708502 3.823355 5.489610 -69.691036 -0.000005 0.000003 0.000001 0.617319 1.864936 3.891384 -25.147022 -8.608694 51.011316 0.000758 93.125798 -0.000783 -0.705368 8.320980 -6.830654 18.602906 8.965673 0.015955 6.688772 -29.478543 11.290248 86.438564 -61.150404 47.653902 0.000001 -0.000001 0.000001 4.248876 -1.920372 88.979012 3.650867 -4.547378 77.507921 3.109120 -4.392871 70.565348 -0.000004 -0.000005 0.000001 0.874770 -6.773651 87.490967 3.647027 -4.546539 77.459481 1.411966 -3.342125 45.796203 -0.000000 0.000004 -0.000003 -1.751950 -7.137448 91.677497 3.592528 -4.534087 76.770828 1.701742 -3.600854 50.578743 -0.000005 -0.000000 0.000000 -5.653786 -8.751906 99.358571 4.191004 -4.633819 84.248840 3.014291 -4.358357 69.322759 -0.000001 0.000001 0.000006 -11.388051 11.068894 17.422868 25.074145 -0.127945 -3.322583 -15.479451 -12.814024 -10.404120 0.000011 0.000001 -0.000000 -0.000000 0.000000 -0.000000 -9.611815 -11.296113 -7.641481 24.765486 2.278098 2.023845 -14.816302 -0.922131 4.375282 0.634093 -0.000003 0.000004 0.000000 -0.000001 0.000000 
1.835798 89.450974 49.008408 -0.619186 -0.204337 -1.699158 1.340965 0.359655 -2.397704 2.897193 0.610958 -2.243737 2.907902 0.513096 -2.177882 -9.909164 -0.744647 1.283880 -17.594238 -1.966162 1.635931 0.000001 0.000000 -0.000000 0.867707 -14.643383 -10.511348 -1.441850 2.433894 -42.066807 -0.000010 -31.797468 -0.000031 1.740174 -2.215431 10.867768 19.119986 -6.910954 1.290254 6.448800 27.877050 -11.925664 64.295091 59.549558 -28.916951 -0.000000 0.000001 -0.000002 -4.318305 9.897632 -98.647391 5.117263 5.805026 -82.782924 3.572125 5.390434 -67.041408 0.000002 -0.000002 0.000003 -0.529347 8.375205 -91.418216 4.430602 5.676598 -75.926439 2.035394 4.438988 -49.247945 -0.000001 -0.000002 0.000007 2.018788 8.021748 -87.202944 4.447806 5.680862 -76.100267 1.711321 4.138502 -44.916748 0.000005 -0.000001 0.000001 5.424372 3.364567 -87.324802 4.370581 5.661306 -75.318688 3.680181 5.434741 -68.187028 -0.000004 0.000001 0.000003 0.671275 2.579467 6.404538 -20.388436 -9.822807 53.446271 0.003315 88.438048 -0.003291 6.012825 10.560217 -9.770374 18.603777 8.966361 0.016422 6.688958 -29.478820 11.289484 86.447689 -61.149174 47.661958 -0.000003 0.000003 0.000003 4.247507 -1.920645 88.981546 3.651011 -4.547433 77.509663 3.109259 -4.392931 70.567397 -0.000004 -0.000001 -0.000001 0.874736 -6.773781 87.492708 3.647205 -4.546576 77.461592 1.412050 -3.342205 45.797556 0.000004 0.000000 -0.000004 -1.751706 -7.137852 91.681124 3.592594 -4.534116 76.771845 1.701828 -3.600919 50.580119 -0.000003 -0.000000 -0.000005 -5.653904 -8.752418 99.361856 4.191184 -4.633843 84.251073 3.014458 -4.358421 69.324876 0.000002 -0.000003 0.000004 -11.566758 10.017336 17.851528 25.725860 1.716855 -3.400780 -15.793125 -13.835964 -11.114572 -0.000074 0.000003 -0.000006 0.000000 -0.000000 -0.000000 -9.564819 -10.582481 -7.422102 24.620004 1.548263 2.073765 -14.540303 -1.028072 4.713757 0.657223 0.000002 -0.000008 0.000000 -0.000001 0.000000 
1.957212 89.392609 48.769260 -0.634036 -0.120927 -1.954682 1.380889 0.532072 -2.482070 2.907587 0.951252 -2.334022 2.916904 0.865458 -2.258864 -9.853424 -0.939244 1.179074 -16.607670 -2.977319 1.848139 -0.000002 0.000000 0.000000 0.073480 -15.619741 -12.802840 -2.742329 -1.099988 -45.951337 0.000009 -29.203662 -0.000001 1.721528 -2.032537 11.615416 18.654961 -6.604636 1.966859 6.262949 27.927370 -11.871084 55.131921 58.764099 -21.439636 -0.000001 0.000000 0.000002 -4.481438 9.640630 -97.225612 4.981298 5.786270 -81.436523 3.376633 5.303747 -64.943822 0.000001 0.000000 -0.000002 -0.608498 8.265378 -90.446396 4.354399 5.657038 -75.154709 1.943861 4.358677 -48.054732 -0.000002 -0.000001 0.000003 1.941409 7.954948 -86.207041 4.324767 5.649139 -74.853962 1.657024 4.083478 -44.159420 0.000001 0.000000 0.000007 5.336446 3.501106 -85.076037 4.171894 5.605749 -73.294944 3.474416 5.348152 -65.997256 -0.000003 0.000003 0.000000 0.692088 2.833323 9.888190 -13.667064 -7.711739 55.876015 0.000184 83.591530 -0.000173 11.766492 12.298371 -13.253188 18.606497 8.968772 0.018333 6.689536 -29.479551 11.286838 86.475140 -61.147692 47.680284 0.000004 -0.000001 0.000002 4.246725 -1.920770 88.990234 3.651470 -4.547535 77.515591 3.109802 -4.393117 70.574514 0.000001 -0.000003 -0.000002 0.874517 -6.774311 87.501608 3.647676 -4.546686 77.467746 1.412315 -3.342468 45.802210 0.000005 -0.000002 -0.000007 -1.752485 -7.139111 91.691936 3.593088 -4.534233 76.778218 1.702116 -3.601166 50.584774 -0.000003 0.000001 -0.000003 -5.654517 -8.754522 99.372552 4.191872 -4.633908 84.259591 3.014998 -4.358650 69.332137 0.000004 -0.000004 0.000003 -11.749916 9.002211 18.250762 26.377827 3.404455 -3.477158 -16.108444 -14.734709 -11.810875 -0.000061 -0.000002 -0.000003 0.000000 -0.000000 -0.000000 -9.595155 -10.042845 -7.225867 24.569833 0.979190 2.116176 -14.323208 -1.107230 4.960389 0.667512 0.000003 -0.000000 0.000000 0.000001 -0.000000 
2.040120 89.330818 48.540718 -0.638135 -0.035276 -2.172252 1.438179 0.691782 -2.526309 2.932333 1.262609 -2.391271 2.940183 1.195455 -2.306685 -9.952137 -1.118324 1.027146 -15.545657 -3.966716 2.051875 0.000000 0.000000 0.000000 -0.155270 -15.656223 -13.514997 -2.769282 -3.346364 -49.473481 0.000009 -26.783699 0.000010 3.604877 -2.193551 12.087053 18.084449 -6.236405 2.795092 6.036796 27.977543 -11.819520 44.673033 56.853497 -12.994093 0.000001 0.000001 -0.000001 -4.658611 9.308820 -95.432380 4.811569 5.758293 -79.749166 3.142804 5.188496 -62.386921 0.000001 0.000001 -0.000007 -0.695175 8.122480 -89.193617 4.256614 5.630349 -74.160302 1.834580 4.258217 -46.600185 0.000003 0.000003 0.000002 1.850969 7.868715 -84.934031 4.172524 5.605927 -73.301447 1.591365 4.014920 -43.229527 0.000003 -0.000001 0.000009 5.214733 3.661981 -82.333081 3.932513 5.528609 -70.827853 3.228266 5.232091 -63.328011 -0.000000 0.000003 0.000001 0.731938 2.228816 13.756171 -5.160688 -3.334271 56.711501 0.000112 78.714904 -0.000083 16.021699 13.874085 -16.187069 18.601487 8.963743 0.014856 6.687238 -29.478413 11.291089 86.415888 -61.158081 47.633603 0.000002 -0.000000 -0.000002 4.244347 -1.921252 88.973794 3.650600 -4.547322 77.504363 3.108785 -4.392759 70.561120 -0.000000 0.000002 -0.000001 0.875243 -6.773224 87.483843 3.646932 -4.546518 77.458505 1.411812 -3.341978 45.793403 0.000003 0.000001 -0.000004 -1.748282 -7.137087 91.675475 3.591984 -4.533966 76.764175 1.701566 -3.600711 50.575976 -0.000002 0.000001 -0.000003 -5.652726 -8.751670 99.354315 4.190430 -4.633770 84.241887 3.013955 -4.358228 69.318381 -0.000000 0.000001 0.000004 -11.939300 8.064291 18.580548 26.968739 4.784504 -3.544876 -16.361315 -15.398866 -12.400629 -0.000040 0.000005 -0.000000 -0.000000 -0.000000 0.000000 -9.704479 -9.861267 -7.061370 24.563438 0.727515 2.144120 -14.132116 -1.138459 5.059005 0.669751 -0.000001 -0.000011 -0.000000 0.000000 -0.000000 
2.094146 89.283699 48.314056 -0.639890 0.057384 -2.355938 1.497743 0.834981 -2.554881 2.961146 1.536101 -2.435530 2.968312 1.490401 -2.342606 -10.166799 -1.282566 0.842219 -14.436858 -4.926278 2.234739 0.000002 -0.000000 0.000000 0.030617 -14.946768 -13.074036 -1.908386 -4.231345 -52.832517 -0.000007 -24.633902 -0.000031 7.236780 -2.318931 13.178524 17.441376 -5.830981 3.727360 5.784303 28.017137 -11.784430 34.614685 53.542222 -4.924572 -0.000001 -0.000001 -0.000001 -4.823720 8.913659 -93.338244 4.616008 5.719668 -77.793573 2.887394 5.047208 -59.524197 0.000000 0.000004 -0.000002 -0.776847 7.950725 -87.693919 4.140081 5.596130 -72.968974 1.715282 4.142459 -44.971383 -0.000002 -0.000000 0.000002 1.754972 7.765766 -83.423589 3.998902 5.551140 -71.515598 1.518492 3.936164 -42.178423 -0.000004 0.000002 0.000004 5.058889 3.832953 -79.259523 3.668680 5.430144 -68.065308 2.959418 5.088728 -60.339455 0.000000 0.000000 -0.000001 0.864065 0.911125 17.183591 3.308387 -0.391134 56.179313 0.000069 74.354600 -0.000057 17.730346 16.022201 -16.792208 18.594027 8.956454 0.008893 6.685124 -29.476337 11.298412 86.339185 -61.161414 47.588288 0.000004 0.000000 0.000002 4.241595 -1.921864 88.948693 3.649202 -4.547009 77.487226 3.107188 -4.392189 70.540650 0.000001 0.000000 0.000001 0.876017 -6.771423 87.454521 3.645711 -4.546226 77.442870 1.411010 -3.341215 45.779951 -0.000001 0.000000 -0.000004 -1.743055 -7.133691 91.647471 3.590175 -4.533540 76.741472 1.700718 -3.600013 50.562473 -0.000002 -0.000000 -0.000003 -5.649820 -8.748894 99.325369 4.188272 -4.633563 84.215133 3.012373 -4.357650 69.297426 0.000001 0.000004 0.000001 -12.118202 7.205190 18.847909 27.457162 5.927520 -3.604917 -16.523071 -15.900168 -12.895313 -0.000011 -0.000006 -0.000007 0.000000 -0.000000 -0.000000 -9.849592 -9.960749 -6.921229 24.545905 0.715916 2.160372 -13.938897 -1.133528 5.043658 0.675705 0.000000 0.000001 -0.000000 -0.000001 0.000000 
